<?xml version="1.0" encoding="utf-8"?>
<!-- Generator: Adobe Illustrator 19.2.1, SVG Export Plug-In . SVG Version: 6.00 Build 0)  -->
<svg version="1.1" id="Layer_1" xmlns="http://www.w3.org/2000/svg" xmlns:xlink="http://www.w3.org/1999/xlink" x="0px" y="0px"
	 viewBox="0 0 278 60.5" style="enable-background:new 0 0 278 60.5;" xml:space="preserve">
<circle cx="30.2" cy="30.2" r="30.2"/>
<g>
	<path d="M101.6,38H79.7c-1.5,0-2.8-1.2-2.8-2.8v-9.5c0-1.5,1.2-2.8,2.8-2.8h21.9c1.5,0,2.8,1.2,2.8,2.8v9.5
		C104.4,36.8,103.1,38,101.6,38z M79.7,24.5c-0.7,0-1.2,0.6-1.2,1.2v9.5c0,0.7,0.6,1.2,1.2,1.2h21.9c0.7,0,1.2-0.6,1.2-1.2v-9.5
		c0-0.7-0.6-1.2-1.2-1.2H79.7z"/>
</g>
<rect x="103.7" y="28.8" width="2.4" height="3.4"/>
<path d="M161.8,35.1h-20.2c-0.3,0-0.6-0.3-0.6-0.6v-8.1c0-0.3,0.3-0.6,0.6-0.6h20.2c0.3,0,0.6,0.3,0.6,0.6v8.1
	C162.3,34.9,162.1,35.1,161.8,35.1z"/>
<path d="M199.5,25.2l1.9,11h23.4v-11C224.9,25.2,199.7,25.2,199.5,25.2z"/>
</svg>
