<?xml version="1.0" encoding="utf-8"?>
<!-- Generator: Adobe Illustrator 19.2.1, SVG Export Plug-In . SVG Version: 6.00 Build 0)  -->
<svg version="1.1" id="Layer_1" xmlns="http://www.w3.org/2000/svg" xmlns:xlink="http://www.w3.org/1999/xlink" x="0px" y="0px"
	 viewBox="0 0 461.3 421.3" width="461.3" height="421.3" style="enable-background:new 0 0 461.3 421.3;" xml:space="preserve">
<g>
	<path d="M305.5,420.5H155.2c-28.5,0-55-15.3-69.3-40L10.7,250.2c-14.2-24.7-14.2-55.3,0-80L85.9,40c14.2-24.7,40.8-40,69.3-40
		h150.4c28.5,0,55,15.3,69.3,40L450,170.2c14.2,24.7,14.2,55.3,0,80l-75.2,130.2C360.6,405.1,334,420.5,305.5,420.5z M155.2,10.8
		c-24.7,0-47.6,13.3-60,34.6L20,175.6C7.7,197,7.7,223.5,20,244.8l75.2,130.2c12.3,21.4,35.3,34.6,60,34.6h150.4
		c24.7,0,47.6-13.3,60-34.6l75.2-130.2c12.3-21.4,12.3-47.9,0-69.2L365.5,45.4c-12.3-21.4-35.3-34.6-60-34.6H155.2z"/>
</g>
</svg>
