<?xml version="1.0" encoding="utf-8"?>
<!-- Generator: Adobe Illustrator 19.2.1, SVG Export Plug-In . SVG Version: 6.00 Build 0)  -->
<svg version="1.1" id="Layer_1" xmlns="http://www.w3.org/2000/svg" xmlns:xlink="http://www.w3.org/1999/xlink" x="0px" y="0px"
	 viewBox="0 0 191.3 212.3" width="191.3" height="212.3" style="enable-background:new 0 0 191.3 212.3;" xml:space="preserve">
<g>
	<path d="M0,1.4h40.5v12.9H15.2v35.8h22.4V63H15.2v38.6h25.3v12.9H0V1.4z"/>
	<path d="M54.5,1.4h20.1c9.7,0,16.7,2.4,21.1,7.3c4.4,4.9,6.6,12.7,6.6,23.4c0,15-4.4,24.8-13.3,29.2c-4.4,2-10.9,3-19.3,3v50.2
		H54.5V1.4z M69.7,51.3c6.3,0,10.6-1.3,13-3.8c2.4-2.6,3.7-7.2,3.7-13.8c0-6.7-1.2-11.7-3.5-14.8c-2.3-3.1-6-4.7-11.1-4.7h-2.1V51.3
		z"/>
	<path d="M114,1.4h15.2v113.1H114V1.4z"/>
	<path d="M191,3.2v13.7c-3.9-1.9-7.2-2.9-9.8-2.9c-3.6,0-6.7,0.9-9.3,2.7c-2.6,1.8-4.7,4.5-6.4,8.2c-1.7,3.7-2.9,8.4-3.7,14.1
		c-0.8,5.7-1.2,12.4-1.2,20.2c0,27.9,7.2,41.9,21.5,41.9c2.5,0,5.5-0.8,9-2.3v14c-3.7,2.1-7.8,3.1-12.3,3.1
		c-22.9,0-34.4-18.7-34.4-56.1c0-20.2,2.8-35.3,8.4-45.1c5.6-9.9,14.1-14.8,25.7-14.8C182.7-0.1,186.9,1,191,3.2z"/>
</g>
<path d="M0,145h187l-51.9,57L98,164l-35,48C63,212,0.7,145.7,0,145z"/>
</svg>
