<?xml version="1.0" encoding="utf-8"?>
<!-- Generator: Adobe Illustrator 19.2.1, SVG Export Plug-In . SVG Version: 6.00 Build 0)  -->
<svg version="1.1" id="Layer_1" xmlns="http://www.w3.org/2000/svg" xmlns:xlink="http://www.w3.org/1999/xlink" x="0px" y="0px"
	 viewBox="0 0 886 496" width="886" height="496" style="enable-background:new 0 0 886 496;" xml:space="preserve">
<style type="text/css">
	.st0{fill:url(#SVGID_1_);}
	.st1{fill:#B6D3D0;}
</style>
<linearGradient id="SVGID_1_" gradientUnits="userSpaceOnUse" x1="443.7258" y1="-0.9735" x2="443.7258" y2="298.4529">
	<stop  offset="0" style="stop-color:#589DAA"/>
	<stop  offset="1" style="stop-color:#E3E7DB"/>
</linearGradient>
<rect x="0.5" y="-0.2" class="st0" width="886.5" height="496.6"/>
<path class="st1" d="M572.5,162h290.9c0,0,0-75.2-83.1-65.5s-63.7,65.3-141.3,39C608.8,125.2,572.5,162,572.5,162z"/>
<path class="st1" d="M91.9,200h228.5c0,0-18-38.8-65.1-36s-45.7,15.3-72,16.6S129.3,160,91.9,200z"/>
<path class="st1" d="M248.4,83h84.5c0,0-11.1-18.7-29.1-11.5c-20.8,8.3-22.2-3.3-33.2-1.9C259.5,71,248.4,83,248.4,83z"/>
</svg>
