<?xml version="1.0" encoding="utf-8"?>
<!-- Generator: Adobe Illustrator 19.2.1, SVG Export Plug-In . SVG Version: 6.00 Build 0)  -->
<svg version="1.1" id="Layer_1" xmlns="http://www.w3.org/2000/svg" xmlns:xlink="http://www.w3.org/1999/xlink" x="0px" y="0px"
	 viewBox="0 0 890 247" width="890" height="247" style="enable-background:new 0 0 890 247;" xml:space="preserve">
<style type="text/css">
	.st0{fill:#294B5F;}
	.st1{fill:#426473;}
	.st2{fill:#8ABABA;}
	.st3{fill:#273648;}
	.st4{fill:#3A2D41;}
	.st5{fill:#223F4E;}
	.st6{fill:#586154;}
</style>
<path class="st0" d="M-0.2,117.7l243.1-98.6l238.2,110.7L783-0.4l108,92.7V247H-0.2C-0.2,247,1.5,119.5-0.2,117.7z"/>
<polygon class="st1" points="683.4,196.4 770.6,95.2 716.6,93.8 783.1,-0.4 576.7,89.6 636.3,96.7 618.3,119 695.8,119 "/>
<path class="st2" d="M481.1,129.8l-106.7,22.2l54,22.2l-149.6,65.1l283.9,5.5c0,0-5.5-77.6-9.7-77.6c-4.2,0-95.6-11.1-95.6-11.1
	L481.1,129.8z"/>
<polygon class="st3" points="633.5,123.2 643.7,86.5 652.9,124.2 "/>
<polygon class="st4" points="605.8,123.2 616,86.5 625.2,124.2 "/>
<polygon class="st5" points="610.7,130.6 616.2,110.8 621.1,131.1 "/>
<polygon class="st5" points="267.9,106.4 273.4,86.5 278.3,106.9 "/>
<polygon class="st6" points="619.6,130.1 629.8,93.4 639,131.1 "/>
<polygon class="st6" points="254,113.5 264.2,76.8 273.4,114.5 "/>
<polygon class="st1" points="303.8,125.6 428.5,174.1 338.5,212.9 291.4,158.9 "/>
</svg>
