<?xml version="1.0" encoding="utf-8"?>
<!-- Generator: Adobe Illustrator 19.2.1, SVG Export Plug-In . SVG Version: 6.00 Build 0)  -->
<svg version="1.1" id="Layer_1" xmlns="http://www.w3.org/2000/svg" xmlns:xlink="http://www.w3.org/1999/xlink" x="0px" y="0px"
	 viewBox="0 0 1280 1435" style="enable-background:new 0 0 1280 1435;" xml:space="preserve" preserveAspectRatio="xMidYMid meet">
<style type="text/css">
	.st0{fill:#111628;}
</style>
<path class="st0" d="M-3,0v1438h1285V0H-3z M832,184l-2,148l-34.7-38.5L766,438l-32-282L832,184z M598,300l40,50l24-90l72,270l-56-4
	l-118,76L598,300z M386,770l-34,34l-36-54l-50,68l76-360l80,366L386,770z M426,326l72,28l-36,104L426,326z M930,1060l-36-32l-58,182
	l-44-58l-44,70l-52-134l-40,40l-18-58l-38,60l-14-144l-36,38l-12-112l-38,34l-24-230l40,68l20-94l52,112l20-62l78,76l26-54l22,58
	l78-62l38,114l56-116l52,66L930,1060z"/>
</svg>
