<?xml version="1.0" encoding="utf-8"?>
<!-- Generator: Adobe Illustrator 19.2.1, SVG Export Plug-In . SVG Version: 6.00 Build 0)  -->
<svg version="1.1" id="Layer_1" xmlns="http://www.w3.org/2000/svg" xmlns:xlink="http://www.w3.org/1999/xlink" x="0px" y="0px"
	 viewBox="0 0 1280 1435" style="enable-background:new 0 0 1280 1435;" xml:space="preserve" preserveAspectRatio="xMidYMid meet">
<style type="text/css">
	.st0{fill:#294B5F;}
</style>
<rect fill="#1B323D" x="0" y="0" width="1280" height="1435"/>
<polygon class="st0" points="855,186 757,222 615,426 437,392 331,572 269,678 345,766 419,778 513,906 587,918 645,1036 771,1032
	843,1172 999,1096 995,920 765,892 735,832 671,888 559,716 521,774 443,634 473,512 523,556 589,516 631,540 669,464 719,514
	775,304 831,332 "/>
</svg>
