<?xml version="1.0" encoding="utf-8"?>
<!-- Generator: Adobe Illustrator 19.2.1, SVG Export Plug-In . SVG Version: 6.00 Build 0)  -->
<svg version="1.1" id="Layer_1" xmlns="http://www.w3.org/2000/svg" xmlns:xlink="http://www.w3.org/1999/xlink" x="0px" y="0px"
	 viewBox="0 0 1280 360.2" style="enable-background:new 0 0 1280 360.2;" xml:space="preserve">
<style type="text/css">
	.st0{fill:#294B5F;}
	.st1{fill:#426473;}
	.st2{fill:#8ABABA;}
	.st3{fill:#404B40;}
	.st4{fill:#182435;}
	.st5{fill:#586154;}
	.st6{fill:#273648;}
	.st7{fill:#3A2D41;}
	.st8{fill:#223F4E;}
</style>
<path class="st0" d="M-4,173L347,31l344,160L1127,3l156,134v546H-4C-4,683-1.5,175.5-4,173z"/>
<polygon class="st1" points="221,83 269,147 347,117 357,141 415,107 421,67 347,31 "/>
<polygon class="st1" points="983,287 1109,141 1031,139 1127,3 829,133 915,143 889,175 1001,175 "/>
<path class="st2" d="M691,191l-154,32l78,32l-216,94l410,8c0,0-8-112-14-112s-138-16-138-16L691,191z"/>
<polygon class="st3" points="943,87.5 957.6,35 970.7,89 "/>
<polygon class="st4" points="1002,71.5 1016.6,19 1029.7,73 "/>
<polygon class="st4" points="180,115.5 194.6,63 207.7,117 "/>
<polygon class="st5" points="455,131.5 469.7,78.5 483,133 "/>
<polygon class="st3" points="983,87.5 997.6,35 1010.7,89 "/>
<polygon class="st3" points="191,127.5 205.6,75 218.7,129 "/>
<polygon class="st3" points="1179,101.5 1193.6,49 1206.7,103 "/>
<polygon class="st5" points="957,101.4 977,6 995,104 "/>
<polygon class="st6" points="911,181.5 925.7,128.5 939,183 "/>
<polygon class="st7" points="871,181.5 885.7,128.5 899,183 "/>
<polygon class="st7" points="381,145.5 395.7,92.5 409,147 "/>
<polygon class="st8" points="878.1,192.2 886,163.6 893.2,193 "/>
<polygon class="st8" points="383.1,157.2 391,128.6 398.2,158 "/>
<polygon class="st5" points="891,191.5 905.7,138.5 919,193 "/>
<polygon class="st5" points="1193,123.5 1207.7,70.5 1221,125 "/>
<polygon class="st5" points="363,167.5 377.7,114.5 391,169 "/>
<polygon class="st5" points="165,137.5 179.7,84.5 193,139 "/>
<polygon class="st1" points="435,185 615,255 485,311 417,233 "/>
<polygon class="st4" points="438,147.5 452.6,95 465.7,149 "/>
<path class="st0" d="M-4,173L347,31l344,160L1127,3l156,134v546H-4C-4,683-1.5,175.5-4,173z"/>
<polygon class="st1" points="221,83 269,147 347,117 357,141 415,107 421,67 347,31 "/>
<polygon class="st1" points="983,287 1109,141 1031,139 1127,3 829,133 915,143 889,175 1001,175 "/>
<path class="st2" d="M691,191l-154,32l78,32l-216,94l410,8c0,0-8-112-14-112s-138-16-138-16L691,191z"/>
<polygon class="st3" points="943,87.5 957.6,35 970.7,89 "/>
<polygon class="st4" points="1002,71.5 1016.6,19 1029.7,73 "/>
<polygon class="st4" points="180,115.5 194.6,63 207.7,117 "/>
<polygon class="st5" points="455,131.5 469.7,78.5 483,133 "/>
<polygon class="st3" points="983,87.5 997.6,35 1010.7,89 "/>
<polygon class="st3" points="191,127.5 205.6,75 218.7,129 "/>
<polygon class="st3" points="1179,101.5 1193.6,49 1206.7,103 "/>
<polygon class="st5" points="957,101.4 977,6 995,104 "/>
<polygon class="st6" points="911,181.5 925.7,128.5 939,183 "/>
<polygon class="st7" points="871,181.5 885.7,128.5 899,183 "/>
<polygon class="st7" points="381,145.5 395.7,92.5 409,147 "/>
<polygon class="st8" points="878.1,192.2 886,163.6 893.2,193 "/>
<polygon class="st8" points="383.1,157.2 391,128.6 398.2,158 "/>
<polygon class="st5" points="891,191.5 905.7,138.5 919,193 "/>
<polygon class="st5" points="1193,123.5 1207.7,70.5 1221,125 "/>
<polygon class="st5" points="363,167.5 377.7,114.5 391,169 "/>
<polygon class="st5" points="165,137.5 179.7,84.5 193,139 "/>
<polygon class="st1" points="435,185 615,255 485,311 417,233 "/>
<polygon class="st4" points="438,147.5 452.6,95 465.7,149 "/>
</svg>
