<?xml version="1.0" encoding="utf-8"?>
<!-- Generator: Adobe Illustrator 19.2.1, SVG Export Plug-In . SVG Version: 6.00 Build 0)  -->
<svg version="1.1" id="Layer_1" xmlns="http://www.w3.org/2000/svg" xmlns:xlink="http://www.w3.org/1999/xlink" x="0px" y="0px"
	 viewBox="0 0 305.3 60.5" style="enable-background:new 0 0 305.3 60.5;" xml:space="preserve">
<circle cx="30.2" cy="30.2" r="30.2"/>
<path d="M101.1,23.5l-4-4.1c-0.1-0.1-0.2-0.1-0.3-0.1l0,0c-0.1,0-0.2,0-0.3,0.1l-22.3,22c-0.2,0.2-0.2,0.5,0,0.7l4,4.1
	c0.1,0.1,0.2,0.1,0.3,0.1l0,0c0.1,0,0.2,0,0.3-0.1l22.3-22C101.3,23.9,101.3,23.6,101.1,23.5z M78.5,45.1l-3.4-3.4l16.5-16.2
	l3.4,3.4L78.5,45.1z"/>
<polygon points="156.6,24 153.7,21.5 150,22.4 151.5,18.9 149.4,15.6 153.2,15.9 155.7,13 156.6,16.7 160.2,18.1 156.9,20.1 "/>
<polygon points="215.8,18.6 213.4,17.4 211,18.6 211.5,16 209.5,14.1 212.2,13.8 213.4,11.3 214.6,13.7 217.2,14.1 215.3,16 "/>
<polygon points="277.2,30.6 275.3,30.4 274,31.8 273.7,29.9 271.9,29.1 273.6,28.2 273.9,26.3 275.2,27.6 277.1,27.2 276.3,29 "/>
</svg>
