<!-- Generator: Adobe Illustrator 19.2.1, SVG Export Plug-In  -->
<svg version="1.1"
	 xmlns="http://www.w3.org/2000/svg" xmlns:xlink="http://www.w3.org/1999/xlink" xmlns:a="http://ns.adobe.com/AdobeSVGViewerExtensions/3.0/"
	 x="0px" y="0px" width="110px" height="60.5px" viewBox="0 0 110 60.5" style="enable-background:new 0 0 110 60.5;"
	 xml:space="preserve">
<defs>
</defs>
<circle cx="30.2" cy="30.2" r="30.2"/>
<g>
	<g>
		<path d="M95.8,41.8c-6.3,0-11.4-5.1-11.4-11.4S89.5,19,95.8,19s11.4,5.1,11.4,11.4S102.1,41.8,95.8,41.8z M95.8,24
			c-3.5,0-6.4,2.9-6.4,6.4s2.9,6.4,6.4,6.4s6.4-2.9,6.4-6.4S99.3,24,95.8,24z"/>
	</g>
	<g>
		<rect x="94.4" y="15.8" width="2.8" height="5.8"/>
	</g>
	<g>
		<rect x="105.8" y="27.1" transform="matrix(-1.836970e-16 1 -1 -1.836970e-16 137.1746 -77.1746)" width="2.8" height="5.8"/>
	</g>
	<g>
		<rect x="94.4" y="38.5" transform="matrix(-1 -1.224647e-16 1.224647e-16 -1 191.5992 82.75)" width="2.8" height="5.8"/>
	</g>
	<g>
		<rect x="83" y="27.1" transform="matrix(6.123234e-17 -1 1 6.123234e-17 54.4246 114.4246)" width="2.8" height="5.8"/>
	</g>
	<g>
		<rect x="100.1" y="17.3" transform="matrix(0.8665 0.4992 -0.4992 0.8665 23.6086 -47.9731)" width="2.8" height="5.8"/>
	</g>
	<g>
		<rect x="104.3" y="32.8" transform="matrix(-0.4992 0.8665 -0.8665 -0.4992 189.3184 -38.0544)" width="2.8" height="5.8"/>
	</g>
	<g>
		<rect x="88.7" y="37" transform="matrix(-0.8665 -0.4992 0.4992 -0.8665 148.3083 119.3822)" width="2.8" height="5.8"/>
	</g>
	<g>
		<rect x="84.6" y="21.4" transform="matrix(0.4992 -0.8665 0.8665 0.4992 21.9631 86.6453)" width="2.8" height="5.8"/>
	</g>
	<g>
		<rect x="104.3" y="21.4" transform="matrix(0.5015 0.8652 -0.8652 0.5015 73.6814 -79.2847)" width="2.8" height="5.8"/>
	</g>
	<g>
		<rect x="100.1" y="37" transform="matrix(-0.8652 0.5015 -0.5015 -0.8652 209.3017 23.4058)" width="2.8" height="5.8"/>
	</g>
	<g>
		<rect x="84.6" y="32.8" transform="matrix(-0.5015 -0.8652 0.8652 -0.5015 98.1765 127.978)" width="2.8" height="5.8"/>
	</g>
	<g>
		<rect x="88.7" y="17.3" transform="matrix(0.8652 -0.5015 0.5015 0.8652 2.039 47.9009)" width="2.8" height="5.8"/>
	</g>
</g>
</svg>
